<?xml version="1.0" standalone="no"?>
<!DOCTYPE svg PUBLIC "-//W3C//DTD SVG 20010904//EN"
 "http://www.w3.org/TR/2001/REC-SVG-20010904/DTD/svg10.dtd">
<svg version="1.0" xmlns="http://www.w3.org/2000/svg"
 width="2671.000000pt" height="2072.000000pt" viewBox="0 0 2671.000000 2072.000000"
 preserveAspectRatio="xMidYMid meet">

<g transform="translate(0.000000,2072.000000) scale(0.100000,-0.100000)"
fill="#000000" stroke="none">
<path d="M2 13678 c1 -3874 3 -7018 5 -6988 1 30 7 168 13 305 13 291 42 719
70 1025 348 3771 1614 7320 3838 10753 109 169 141 211 171 227 20 10 132 62
249 114 1310 593 2676 1055 4072 1376 227 53 889 189 1060 218 35 6 -1664 10
-4712 11 l-4768 1 2 -7042z"/>
<path d="M9657 20583 c181 -338 438 -865 574 -1182 32 -75 65 -137 73 -139 8
-2 93 8 190 22 1862 270 3799 270 5703 0 101 -15 188 -24 195 -21 7 2 28 42
47 88 106 259 414 904 585 1227 l76 142 -3759 0 -3758 0 74 -137z"/>
<path d="M17255 20699 c1173 -224 2083 -459 3085 -797 760 -257 1297 -472
2210 -884 l65 -29 177 -272 c571 -882 1027 -1675 1466 -2552 1205 -2411 1970
-4945 2276 -7545 90 -758 156 -1732 156 -2292 0 -112 4 -178 10 -178 7 0 10
2435 10 7285 l0 7285 -4777 -1 c-4729 -1 -4777 -1 -4678 -20z"/>
<path d="M8720 12064 c-14 -2 -65 -9 -115 -15 -342 -43 -712 -199 -1025 -433
-122 -91 -330 -293 -433 -421 -358 -445 -571 -991 -628 -1609 -16 -177 -6
-510 21 -691 51 -341 154 -663 306 -955 380 -728 1028 -1213 1769 -1326 148
-22 441 -22 590 0 614 92 1141 418 1538 949 287 384 471 853 543 1382 25 184
25 628 0 810 -99 721 -417 1331 -921 1763 -322 276 -706 458 -1115 528 -90 15
-471 28 -530 18z"/>
<path d="M17580 12064 c-390 -47 -698 -159 -1007 -364 -874 -580 -1336 -1729
-1152 -2864 164 -1006 826 -1844 1685 -2129 536 -178 1091 -144 1601 98 236
112 454 266 648 459 438 436 707 999 802 1676 25 177 25 653 0 830 -47 335
-136 624 -283 920 -364 734 -1003 1228 -1754 1356 -91 15 -460 28 -540 18z"/>
<path d="M26690 5378 c0 -327 -25 -850 -66 -1407 -26 -351 -39 -500 -45 -505
-21 -19 -442 -324 -623 -450 -1646 -1155 -3381 -2056 -5231 -2718 -77 -28
-306 -106 -510 -174 l-370 -124 3433 0 3432 0 0 2785 c0 1850 -3 2785 -10
2785 -6 0 -10 -71 -10 -192z"/>
<path d="M2 2543 l-2 -2543 3423 0 3422 1 -370 123 c-1082 360 -1963 725
-2950 1221 -978 492 -1881 1032 -2790 1670 -198 139 -305 216 -577 415 -26 19
-50 44 -53 55 -6 26 -41 472 -60 765 -12 190 -23 411 -38 770 -2 36 -4 -1079
-5 -2477z"/>
<path d="M6445 3824 c-77 -64 -200 -161 -272 -217 -73 -56 -133 -104 -133
-107 0 -7 304 -184 510 -297 496 -272 1031 -524 1556 -734 l204 -82 -124 -241
c-339 -661 -753 -1342 -1200 -1976 l-116 -165 6466 -3 c3557 -1 6469 0 6471 2
3 2 -50 81 -116 175 -381 540 -733 1107 -1051 1696 -140 260 -264 504 -259
509 2 2 99 42 214 89 663 267 1261 559 1873 915 100 59 181 110 180 113 -2 4
-68 58 -148 120 -80 62 -203 159 -273 217 l-129 105 -36 -18 c-223 -108 -692
-310 -995 -429 -1666 -656 -3330 -1010 -5112 -1087 -307 -13 -1145 -7 -1430
11 -928 57 -1780 179 -2650 380 -1035 239 -2162 625 -3124 1069 -85 39 -157
71 -160 71 -3 -1 -69 -53 -146 -116z"/>
</g>
</svg>
