<?xml version="1.0" standalone="no"?>
<!DOCTYPE svg PUBLIC "-//W3C//DTD SVG 20010904//EN"
 "http://www.w3.org/TR/2001/REC-SVG-20010904/DTD/svg10.dtd">
<svg version="1.0" xmlns="http://www.w3.org/2000/svg"
 width="2198.000000pt" height="2200.000000pt" viewBox="0 0 2198.000000 2200.000000"
 preserveAspectRatio="xMidYMid meet">

<g transform="translate(0.000000,2200.000000) scale(0.100000,-0.100000)"
fill="#000000" stroke="none">
<path d="M10590 21994 c-498 -27 -654 -40 -980 -80 -2598 -319 -5028 -1586
-6792 -3542 -1521 -1686 -2476 -3770 -2753 -6006 -32 -258 -65 -629 -56 -638
3 -3 1335 -553 2959 -1222 l2952 -1215 68 43 c234 151 578 296 887 372 219 54
381 75 630 81 l220 6 1340 1947 1340 1947 11 214 c13 241 17 288 45 479 180
1218 911 2314 1976 2958 817 495 1782 693 2733 561 1169 -162 2225 -825 2890
-1814 824 -1227 938 -2805 299 -4133 -222 -462 -493 -839 -860 -1197 -758
-740 -1734 -1153 -2790 -1182 l-217 -6 -1918 -1371 -1919 -1371 -12 -204 c-13
-226 -32 -369 -70 -541 -127 -574 -408 -1085 -823 -1500 -457 -458 -1018 -746
-1664 -855 -757 -128 -1540 43 -2188 477 -602 403 -1033 1000 -1235 1711 l-46
162 -1466 605 c-806 332 -1740 718 -2076 856 -335 139 -611 251 -613 249 -6
-5 83 -280 154 -478 563 -1574 1478 -3002 2669 -4165 1662 -1624 3759 -2672
6038 -3017 579 -88 1026 -119 1672 -119 499 0 719 11 1140 55 2467 258 4763
1340 6539 3079 902 884 1646 1915 2196 3043 628 1289 976 2598 1087 4087 21
294 24 1110 5 1385 -67 939 -209 1735 -456 2545 -875 2882 -2913 5293 -5614
6644 -1302 651 -2673 1023 -4172 1131 -199 15 -972 28 -1130 19z"/>
<path d="M14308 16529 c-1090 -115 -2011 -857 -2358 -1899 -102 -307 -134
-518 -134 -875 0 -356 32 -568 134 -875 347 -1045 1262 -1781 2362 -1900 143
-15 443 -12 598 6 895 103 1685 635 2122 1429 385 700 449 1548 173 2301 -92
251 -276 575 -451 794 -89 111 -306 328 -414 414 -418 334 -910 539 -1436 601
-138 16 -462 18 -596 4z m564 -694 c667 -88 1257 -500 1572 -1097 311 -588
323 -1297 32 -1893 -309 -633 -900 -1062 -1596 -1160 -150 -21 -419 -21 -569
0 -693 97 -1281 525 -1592 1158 -144 295 -209 580 -209 919 0 565 217 1088
616 1484 336 334 762 538 1249 597 85 11 395 6 497 -8z"/>
<path d="M7300 9074 c-182 -25 -520 -112 -520 -134 0 -4 78 -39 173 -78 595
-244 1264 -525 1337 -562 410 -206 721 -572 863 -1015 137 -429 105 -881 -92
-1288 -369 -764 -1242 -1146 -2059 -901 -45 14 -403 157 -794 320 -391 162
-715 293 -720 292 -11 -4 116 -227 180 -318 381 -542 936 -885 1597 -987 157
-24 497 -24 660 1 955 145 1719 833 1950 1755 113 451 96 890 -51 1331 -288
859 -1030 1467 -1937 1585 -147 19 -443 18 -587 -1z"/>
</g>
</svg>
