<?xml version="1.0" standalone="no"?>
<!DOCTYPE svg PUBLIC "-//W3C//DTD SVG 20010904//EN"
 "http://www.w3.org/TR/2001/REC-SVG-20010904/DTD/svg10.dtd">
<svg version="1.0" xmlns="http://www.w3.org/2000/svg"
 width="2198.000000pt" height="2200.000000pt" viewBox="0 0 2198.000000 2200.000000"
 preserveAspectRatio="xMidYMid meet">

<g transform="translate(0.000000,2200.000000) scale(0.100000,-0.100000)"
fill="#000000" stroke="none">
<path d="M1 16873 c1 -5030 2 -5124 19 -4923 203 2288 1083 4401 2559 6150
1185 1404 2715 2494 4437 3163 1124 437 2291 675 3574 730 36 2 -2332 4 -5262
5 l-5328 2 1 -5127z"/>
<path d="M11390 21993 c716 -24 1555 -143 2270 -323 3111 -780 5728 -2886
7169 -5768 550 -1099 908 -2287 1065 -3532 37 -290 69 -677 79 -970 2 -41 4
2327 5 5263 l2 5337 -5337 -2 c-2936 -1 -5300 -3 -5253 -5z"/>
<path d="M14355 17933 c-530 -41 -948 -138 -1375 -318 -1345 -567 -2308 -1804
-2519 -3235 -28 -191 -32 -238 -45 -479 l-11 -214 -1340 -1947 -1340 -1947
-220 -6 c-249 -6 -411 -27 -630 -81 -309 -76 -653 -221 -887 -372 l-68 -43
-2952 1215 c-1624 669 -2956 1218 -2960 1220 -5 3 -8 -2634 -8 -5860 l0 -5866
5338 2 c2935 1 5303 3 5262 5 -2763 99 -5337 1202 -7315 3135 -1191 1163
-2106 2591 -2669 4165 -71 198 -160 473 -154 478 2 2 278 -110 613 -249 336
-138 1270 -524 2076 -856 l1466 -605 46 -162 c298 -1051 1098 -1842 2151
-2127 741 -201 1570 -100 2246 274 255 141 482 312 690 520 415 415 696 926
823 1500 38 172 57 315 70 541 l12 204 1919 1371 1918 1371 217 6 c591 16
1135 146 1671 399 577 273 1108 701 1515 1223 90 116 259 370 334 502 527 933
676 2052 411 3088 -275 1074 -957 1990 -1908 2562 -564 339 -1187 534 -1857
583 -128 9 -423 11 -520 3z m549 -1408 c526 -62 1018 -267 1436 -601 108 -86
325 -303 414 -414 175 -219 359 -543 451 -794 276 -753 212 -1601 -173 -2301
-392 -713 -1078 -1222 -1867 -1389 -325 -68 -709 -75 -1040 -20 -903 151
-1693 764 -2072 1607 -105 233 -180 493 -220 762 -25 170 -25 590 0 760 92
618 362 1159 793 1590 454 454 1046 737 1682 804 134 14 458 12 596 -4z
m-7017 -7450 c808 -106 1478 -589 1829 -1320 340 -707 304 -1540 -95 -2214
-366 -617 -978 -1028 -1696 -1137 -163 -25 -503 -25 -660 -1 -661 102 -1216
445 -1597 987 -64 91 -191 314 -180 318 5 1 329 -130 720 -292 391 -163 749
-306 794 -320 367 -110 769 -96 1118 39 792 305 1247 1128 1084 1960 -101 515
-447 970 -914 1205 -73 37 -742 318 -1337 562 -95 39 -173 74 -173 78 0 22
338 109 520 134 144 19 440 20 587 1z"/>
<path d="M14375 15843 c-723 -88 -1319 -502 -1643 -1140 -151 -297 -222 -600
-222 -941 0 -339 65 -624 209 -919 311 -633 899 -1061 1592 -1158 150 -21 419
-21 569 0 1242 174 2053 1387 1739 2603 -211 818 -909 1436 -1747 1547 -102
14 -412 19 -497 8z"/>
<path d="M21970 10573 c0 -224 -47 -751 -101 -1133 -335 -2382 -1461 -4601
-3195 -6300 -1124 -1101 -2454 -1938 -3939 -2482 -814 -297 -1714 -504 -2600
-597 -190 -20 -586 -49 -745 -54 -47 -2 2317 -4 5253 -5 l5337 -2 0 5335 c0
2934 -2 5335 -5 5335 -3 0 -5 -44 -5 -97z"/>
</g>
</svg>
