<?xml version="1.0" standalone="no"?>
<!DOCTYPE svg PUBLIC "-//W3C//DTD SVG 20010904//EN"
 "http://www.w3.org/TR/2001/REC-SVG-20010904/DTD/svg10.dtd">
<svg version="1.0" xmlns="http://www.w3.org/2000/svg"
 width="787.000000pt" height="549.000000pt" viewBox="0 0 787.000000 549.000000"
 preserveAspectRatio="xMidYMid meet">

<g transform="translate(0.000000,549.000000) scale(0.100000,-0.100000)"
fill="#000000" stroke="none">
<path d="M2 4248 c1 -827 4 -1169 9 -1023 20 546 91 1193 155 1415 88 304 328
556 627 659 256 88 1316 170 2392 184 99 1 -577 4 -1502 5 l-1683 2 2 -1242z"/>
<path d="M4775 5479 c973 -19 1774 -67 2090 -124 391 -72 693 -323 804 -670
73 -225 135 -650 173 -1180 17 -238 17 -1213 0 -1465 -37 -548 -105 -1052
-168 -1239 -104 -312 -367 -555 -690 -637 -293 -74 -1048 -133 -1976 -153
-217 -5 226 -8 1265 -9 l1597 -2 0 2745 0 2745 -1737 -2 c-1154 -1 -1610 -4
-1358 -9z"/>
<path d="M3170 2745 c0 -930 3 -1166 13 -1162 46 19 2012 1154 2012 1162 0 8
-1966 1143 -2012 1162 -10 4 -13 -232 -13 -1162z"/>
<path d="M2 1228 l-2 -1228 1683 2 c1083 1 1565 4 1352 9 -1048 24 -1891 85
-2178 158 -330 85 -602 360 -691 701 -81 306 -142 884 -159 1490 -2 52 -4
-457 -5 -1132z"/>
</g>
</svg>
