<?xml version="1.0" standalone="no"?>
<!DOCTYPE svg PUBLIC "-//W3C//DTD SVG 20010904//EN"
 "http://www.w3.org/TR/2001/REC-SVG-20010904/DTD/svg10.dtd">
<svg version="1.0" xmlns="http://www.w3.org/2000/svg"
 width="787.000000pt" height="549.000000pt" viewBox="0 0 787.000000 549.000000"
 preserveAspectRatio="xMidYMid meet">

<g transform="translate(0.000000,549.000000) scale(0.100000,-0.100000)"
fill="#000000" stroke="none">
<path d="M3185 5483 c-1076 -14 -2136 -96 -2392 -184 -299 -103 -539 -355
-627 -659 -24 -81 -72 -380 -95 -585 -107 -950 -86 -2217 49 -2976 56 -310
126 -469 280 -633 126 -134 291 -234 454 -276 631 -161 3523 -225 5211 -115
418 28 753 67 919 109 323 82 586 325 690 637 63 187 131 691 168 1239 17 252
17 1227 0 1465 -38 530 -100 955 -173 1180 -111 347 -413 598 -804 670 -507
92 -2123 149 -3680 128z m1010 -2154 c550 -316 1000 -578 1000 -584 0 -8
-1966 -1143 -2012 -1162 -10 -4 -13 232 -13 1162 0 930 3 1166 13 1162 6 -3
462 -263 1012 -578z"/>
</g>
</svg>
